<?xml version="1.0" encoding="utf-8"?>
<!-- Generator: Adobe Illustrator 19.2.1, SVG Export Plug-In . SVG Version: 6.00 Build 0)  -->
<svg version="1.1" id="layer" xmlns="http://www.w3.org/2000/svg" xmlns:xlink="http://www.w3.org/1999/xlink" x="0px" y="0px"
	 viewBox="0 0 652 652" style="enable-background:new 0 0 652 652;" xml:space="preserve">
<style type="text/css">
	.st0{fill:#231815;}
	.st1{fill:#D35E13;}
</style>
<g>
	<path class="st0" d="M62.2,286.7h41.6c0,5.4,0.1,10.7,0.1,16.2c0,17-3,28-19,28c-3.2,0.1-6.5,0.1-9.7,0.1l-11-0.1l-9.6-0.1
		c-17.8,0-29.2-2.2-30-28.4c-0.1-3.2-0.2-6.5-0.2-9.7c0-26.8,1.6-39.4,25-39.8l13.8-0.3c1.7-0.1,3.4-0.1,5.1-0.1
		c4.1,0,8.3,0.2,12.4,0.4c14.9,0.6,22.9,4.5,22.9,25.5v1.4H85.6c-0.2-3.1-0.5-6.4-3.1-7.5c-2.5-1.2-5.2-1.2-7.8-1.2
		c-7.1,0-14.3-0.1-21.4-0.1c-9.5,0-10,6.9-10,17.7v7.2c0,9.2,1,15.2,9.2,16.6c2.2,0.3,4.5,0.3,6.7,0.3c5.5,0,11,0.1,16.5,0.1
		c5.5,0,10-1.5,10-9.4c0-0.7,0-1.5-0.1-2.2H62.2V286.7z"/>
	<polygon class="st0" points="116.4,254.6 182.2,254.6 182.2,271.6 134.4,271.6 134.4,284.4 179,284.4 179,299.2 134.4,299.2 
		134.4,312.4 182.2,312.4 182.2,329.4 116.4,329.4 	"/>
	<polygon class="st0" points="276.4,329.4 247.8,329.4 212.3,273.2 212.3,329.4 195.4,329.4 195.4,254.6 224,254.6 259.5,310.6 
		259.5,254.6 276.4,254.6 	"/>
	<polygon class="st0" points="291.8,254.6 357.6,254.6 357.6,271.6 309.8,271.6 309.8,284.4 354.4,284.4 354.4,299.2 309.8,299.2 
		309.8,312.4 357.6,312.4 357.6,329.4 291.8,329.4 	"/>
	<path class="st0" d="M370.9,254.6h54.9c13.9,0,19.7,5.6,19.7,23.7c0,5.2-0.3,10.9-2.5,15.4c-2.3,4.5-6.5,5.5-10.3,7.1
		c7.5,1.2,12,4,12,14.3v14.3h-18.2v-7.2c0-8.2-0.3-12-7.8-12h-30v19.2h-18V254.6z M416,292h2.3c8.4,0,9.1-2.1,9.1-10.4
		c-0.1-3.9-0.2-7-3.5-8.2c-1.6-0.6-3.5-0.7-5.1-0.7h-1.4h-28.5V292H416z"/>
	<path class="st0" d="M478,315.8l-5.8,13.6h-20l32.9-74.8h24.2l32.2,74.8h-19.8l-5.6-13.6H478z M496.9,270.7l-12.6,29.6h25.3
		L496.9,270.7z"/>
	<path class="st0" d="M620.1,300.9c0,1,0.1,2.1,0.1,3.3c0,20.9-4.7,24.8-22.1,25.7c-4.6,0.2-9.1,0.3-13.7,0.3l-11.1-0.2
		c-15-0.2-26.6-0.8-28-24.2c-0.4-5.3-0.5-10.4-0.5-15.7c0-21.8,2.7-33.9,21.6-35.5c5.6-0.6,11.2-0.6,16.8-0.6c7.3,0,14.8,0,22.1,1
		c12.3,1.7,14,12.7,14.2,26h-17.4c0-7.3-3.1-8.3-8.3-8.6c-1.7-0.1-3.4-0.1-5-0.1h-5l-9.1,0.1c-11.7,0.1-11.8,5.5-11.8,19.6
		c0,15.2,0.6,19.3,13.4,19.7l7,0.2c3.1,0,6.1-0.1,9.2-0.1c6.1,0,10-0.7,10-10.9H620.1z"/>
	<polygon class="st1" points="20.4,367.2 620.4,391.3 620.4,340.1 20.4,364 	"/>
</g>
</svg>
