<?xml version="1.0" encoding="UTF-8" standalone="no"?>
<!-- Created with Inkscape (http://www.inkscape.org/) -->

<svg
   version="1.1"
   id="svg2"
   width="201.60001"
   height="115.2"
   viewBox="0 0 201.60001 115.2"
   sodipodi:docname="Iowa DOT Logo_stacked_full color.eps"
   xmlns:inkscape="http://www.inkscape.org/namespaces/inkscape"
   xmlns:sodipodi="http://sodipodi.sourceforge.net/DTD/sodipodi-0.dtd"
   xmlns="http://www.w3.org/2000/svg"
   xmlns:svg="http://www.w3.org/2000/svg">
  <defs
     id="defs6">
    <clipPath
       clipPathUnits="userSpaceOnUse"
       id="clipPath18">
      <path
         d="m 358.953,603.66 c 46.977,0 98.715,4.012 151.863,9.633 6.168,13.82 9.672,29.09 9.672,45.203 0,61.375 -49.758,111.133 -111.133,111.133 -61.375,0 -111.132,-49.758 -111.132,-111.133 0,-18.492 4.586,-35.894 12.578,-51.234 13.863,-1.789 26.996,-2.973 39.004,-3.399 2.125,-0.074 4.195,-0.113 6.246,-0.136 0.953,-0.012 1.965,-0.067 2.902,-0.067 z"
         id="path16" />
    </clipPath>
    <radialGradient
       fx="0"
       fy="0"
       cx="0"
       cy="0"
       r="1"
       gradientUnits="userSpaceOnUse"
       gradientTransform="matrix(1.83475,168.797,168.797,-1.83475,409.78,599.667)"
       spreadMethod="pad"
       id="radialGradient24">
      <stop
         style="stop-opacity:1;stop-color:#f8ec08"
         offset="0"
         id="stop20" />
      <stop
         style="stop-opacity:1;stop-color:#dca014"
         offset="1"
         id="stop22" />
    </radialGradient>
  </defs>
  <sodipodi:namedview
     id="namedview4"
     pagecolor="#ffffff"
     bordercolor="#000000"
     borderopacity="0.25"
     inkscape:showpageshadow="2"
     inkscape:pageopacity="0.0"
     inkscape:pagecheckerboard="0"
     inkscape:deskcolor="#d1d1d1" />
  <g
     id="g8"
     inkscape:groupmode="layer"
     inkscape:label="ink_ext_XXXXXX"
     transform="matrix(1.3333333,0,0,-1.3333333,0,115.2)">
    <g
       id="g10"
       transform="scale(0.1)">
      <g
         id="g12">
        <g
           id="g14"
           clip-path="url(#clipPath18)">
          <path
             d="m 358.953,603.66 c 46.977,0 98.715,4.012 151.863,9.633 6.168,13.82 9.672,29.09 9.672,45.203 0,61.375 -49.758,111.133 -111.133,111.133 -61.375,0 -111.132,-49.758 -111.132,-111.133 0,-18.492 4.586,-35.894 12.578,-51.234 13.863,-1.789 26.996,-2.973 39.004,-3.399 2.125,-0.074 4.195,-0.113 6.246,-0.136 0.953,-0.012 1.965,-0.067 2.902,-0.067"
             style="fill:url(#radialGradient24);fill-opacity:1;fill-rule:nonzero;stroke:none"
             id="path26" />
        </g>
      </g>
      <path
         d="m 409.355,821.113 c -89.812,0 -162.621,-72.804 -162.621,-162.617 0,-14.308 2.036,-28.109 5.504,-41.328 18.907,-3.816 37.606,-7.066 55.289,-9.445 1.082,-0.145 2.2,-0.321 3.274,-0.461 -7.992,15.34 -12.578,32.742 -12.578,51.234 0,61.375 49.757,111.133 111.132,111.133 61.375,0 111.133,-49.758 111.133,-111.133 0,-16.113 -3.504,-31.383 -9.672,-45.203 1.024,0.109 2.055,0.23 3.079,0.34 17.64,1.883 35.39,3.902 53.226,6.062 3.055,12.453 4.856,25.403 4.856,38.801 0,89.813 -72.809,162.617 -162.622,162.617"
         style="fill:#26607d;fill-opacity:1;fill-rule:nonzero;stroke:none"
         id="path28" />
      <path
         d="m 410.859,587.391 c -23.82,5.172 -42.414,10.043 -55.468,14.48 -1.985,0.676 -3.86,1.34 -5.586,1.992 -12.008,0.426 -25.141,1.61 -39.004,3.399 -1.074,0.14 -2.192,0.316 -3.274,0.461 -17.683,2.379 -36.382,5.629 -55.289,9.445 13.407,-51.078 50.953,-92.203 99.782,-110.641 13.535,9.715 31.664,21.711 48.777,29.746 29.703,13.946 57.211,23.95 57.211,32.7 0,8.75 -25.113,13.636 -47.149,18.418"
         style="fill:#bddc4e;fill-opacity:1;fill-rule:nonzero;stroke:none"
         id="path30" />
      <path
         d="m 513.895,613.633 c -1.024,-0.11 -2.055,-0.231 -3.079,-0.34 -53.148,-5.621 -104.886,-9.633 -151.863,-9.633 -0.937,0 -1.949,0.055 -2.902,0.067 2.347,-0.633 4.875,-1.243 7.515,-1.852 7.157,-1.641 15.332,-3.238 24.442,-5.027 34.976,-6.86 52.754,-8.969 81.441,-13.27 30.961,-4.637 39.66,-19.937 -12.469,-50.629 -16.273,-9.578 -29.542,-23.66 -39.511,-36.847 16.695,0.859 32.683,4.32 47.695,9.812 50.387,18.441 89.012,60.996 101.957,113.781 -17.836,-2.16 -35.586,-4.179 -53.226,-6.062"
         style="fill:#bddc4e;fill-opacity:1;fill-rule:nonzero;stroke:none"
         id="path32" />
      <path
         d="m 469.449,583.578 c -28.687,4.301 -46.465,6.41 -81.441,13.27 -9.11,1.789 -17.285,3.386 -24.442,5.027 -2.64,0.609 -5.168,1.219 -7.515,1.852 -2.051,0.023 -4.121,0.062 -6.246,0.136 1.726,-0.652 3.601,-1.316 5.586,-1.992 13.054,-4.437 31.648,-9.308 55.468,-14.48 22.036,-4.782 47.149,-9.668 47.149,-18.418 0,-8.75 -27.508,-18.754 -57.211,-32.7 -17.113,-8.035 -35.242,-20.031 -48.777,-29.746 0.511,-0.195 1.007,-0.425 1.527,-0.613 17.43,-6.379 36.168,-10.039 55.808,-10.039 2.723,0 5.426,0.086 8.114,0.227 9.969,13.187 23.238,27.269 39.511,36.847 52.129,30.692 43.43,45.992 12.469,50.629"
         style="fill:#ffffff;fill-opacity:1;fill-rule:nonzero;stroke:none"
         id="path34" />
      <path
         d="m 1245.85,737.188 49.77,-106.438 h -99.85 z m 129.54,-150.329 -106.53,224.219 h -45.12 L 1130.61,615.059 1078.76,505.91 h 58.56 l 35,74.309 h 146.66 l 34.58,-74.309 h 60.28 l -38.45,80.949"
         style="fill:#26607d;fill-opacity:1;fill-rule:nonzero;stroke:none"
         id="path36" />
      <path
         d="m 98.1563,811.074 v -305.16 h 55.6987 v 305.16 H 98.1563"
         style="fill:#26607d;fill-opacity:1;fill-rule:nonzero;stroke:none"
         id="path38" />
      <path
         d="m 1092.21,811.074 h -57.1 L 961.504,627.82 v 0 l -16.742,-41.691 -12.645,43.144 -51.996,177.446 h -1.625 -50.566 l -1.547,-0.024 -51.035,-173.933 -13.684,-46.633 -18.594,46.289 -71.757,178.656 h -1.305 -52.746 -3.047 l 71.414,-180.336 49.434,-124.824 h 1.316 49.262 1.488 l 40.137,126.563 25.945,81.82 26.148,-83 39.496,-125.383 h 1.493 49.699 1.316 l 46.917,118.484 v 0 l 73.93,186.676"
         style="fill:#26607d;fill-opacity:1;fill-rule:nonzero;stroke:none"
         id="path40" />
      <path
         d="m 536.816,199.301 c 0,65.332 -28.976,101.211 -86.945,101.211 H 399.266 V 98.0898 h 50.605 c 57.969,0 86.945,35.8902 86.945,101.2112 z m 65.789,0 C 602.605,102.23 548.32,47.4844 453.094,47.4844 H 335.781 V 351.117 h 117.313 c 95.226,0 149.511,-54.746 149.511,-151.816"
         style="fill:#26607d;fill-opacity:1;fill-rule:nonzero;stroke:none"
         id="path42" />
      <path
         d="m 687.215,199.301 c 0,-67.625 29.445,-104.4221 80.508,-104.4221 50.605,0 80.05,36.7971 80.05,104.4221 0,67.629 -29.445,104.433 -80.05,104.433 -51.063,0 -80.508,-36.804 -80.508,-104.433 z m 226.348,0 c 0,-97.528 -55.665,-156.4143 -145.84,-156.4143 -90.164,0 -146.289,58.8863 -146.289,156.4143 0,97.539 56.125,156.426 146.289,156.426 90.175,0 145.84,-58.887 145.84,-156.426"
         style="fill:#26607d;fill-opacity:1;fill-rule:nonzero;stroke:none"
         id="path44" />
      <path
         d="M 1176.22,300.055 H 1074.55 V 47.4844 h -63.49 V 300.055 H 908.934 v 51.062 h 267.286 v -51.062"
         style="fill:#26607d;fill-opacity:1;fill-rule:nonzero;stroke:none"
         id="path46" />
    </g>
  </g>
</svg>
